<?xml version="1.0" encoding="utf-8"?>
<!-- Generator: Adobe Illustrator 23.0.0, SVG Export Plug-In . SVG Version: 6.00 Build 0)  -->
<svg version="1.1" id="Layer_1" xmlns="http://www.w3.org/2000/svg" xmlns:xlink="http://www.w3.org/1999/xlink" x="0px" y="0px"
	 viewBox="0 0 1310.6 360.8" style="enable-background:new 0 0 1310.6 360.8;" xml:space="preserve">
<style type="text/css">
	.st0{fill:url(#SVGID_1_);}
	.st1{fill:url(#SVGID_2_);}
	.st2{fill:url(#SVGID_3_);}
	.st3{fill:url(#SVGID_4_);}
	.st4{fill:url(#SVGID_5_);}
	.st5{fill:url(#SVGID_6_);}
	.st6{fill:url(#SVGID_7_);}
	.st7{fill:url(#SVGID_8_);}
	.st8{fill:url(#SVGID_9_);}
	.st9{fill:url(#SVGID_10_);}
	.st10{fill:url(#SVGID_11_);}
	.st11{fill:url(#SVGID_12_);}
	.st12{fill:url(#SVGID_13_);}
	.st13{fill:url(#SVGID_14_);}
	.st14{fill:url(#SVGID_15_);}
	.st15{fill:url(#SVGID_16_);}
	.st16{fill:url(#SVGID_17_);}
	.st17{fill:url(#SVGID_18_);}
	.st18{fill:url(#SVGID_19_);}
	.st19{fill:url(#SVGID_20_);}
	.st20{fill:url(#SVGID_21_);}
	.st21{fill:url(#SVGID_22_);}
	.st22{fill:url(#SVGID_23_);}
	.st23{fill:url(#SVGID_24_);}
	.st24{fill:url(#SVGID_25_);}
	.st25{fill:url(#SVGID_26_);}
	.st26{fill:url(#SVGID_27_);}
	.st27{fill:url(#SVGID_28_);}
	.st28{fill:url(#SVGID_29_);}
	.st29{fill:url(#SVGID_30_);}
	.st30{fill:url(#SVGID_31_);}
	.st31{fill:url(#SVGID_32_);}
	.st32{fill:url(#SVGID_33_);}
</style>
<g>
	<g>
		
			<linearGradient id="SVGID_1_" gradientUnits="userSpaceOnUse" x1="395.6117" y1="86.4682" x2="395.6117" y2="296.1882" gradientTransform="matrix(1 0 0 -1 0 363.0638)">
			<stop  offset="0" style="stop-color:#B4792D"/>
			<stop  offset="4.812843e-02" style="stop-color:#9A6929;stop-opacity:0.9952"/>
			<stop  offset="0.1267" style="stop-color:#775324;stop-opacity:0.9873"/>
			<stop  offset="0.213" style="stop-color:#594020;stop-opacity:0.9787"/>
			<stop  offset="0.3073" style="stop-color:#40311C;stop-opacity:0.9693"/>
			<stop  offset="0.413" style="stop-color:#2D2519;stop-opacity:0.9587"/>
			<stop  offset="0.5363" style="stop-color:#201C17;stop-opacity:0.9464"/>
			<stop  offset="0.6934" style="stop-color:#181716;stop-opacity:0.9307"/>
			<stop  offset="1" style="stop-color:#161616;stop-opacity:0.9"/>
		</linearGradient>
		<path class="st0" d="M397.5,116.3l3.2,10.5c-0.3,0.6-3.8,7.7-4.1,7.7h-0.3c-2.8,0-5.3,0.2-7.4,0.6c-8.8,2-13.2,5.9-13.2,12v1.5
			c0,6.6,9.2,10.6,27.7,12.2c25.1,3.3,37.6,14.5,37.6,33.4c0,4.2-0.8,8.5-2.4,12.8c-7.1,14.5-20.1,28.4-41,28.4
			c-10.5,0-23.1-3.4-31.2-7c-9.3-5.2-13.1-14.4-16.1-23.1c1.4-1.1,7.1-6.8,17-12c0.6,0,0.9,0.2,0.9,0.6
			c5.3,10.1,13.8,15.2,25.7,15.2h4.8c1.7,0,3.5-0.1,5.4-0.2c10.4-2.4,15.5-6.5,15.5-12.3v-4.2c0-4.4-4.3-8.1-12.8-11
			c-13.1-1.8-22.8-3.6-29.2-5.4c-15.3-5-23-14.6-23-28.6c0-4.5,1-8.9,2.9-13.2c7.8-12.5,20.7-18.8,38.8-18.8
			C397.1,115.6,397.5,115.8,397.5,116.3z"/>
		
			<linearGradient id="SVGID_2_" gradientUnits="userSpaceOnUse" x1="590.8524" y1="81.6205" x2="590.8524" y2="297.6691" gradientTransform="matrix(1 0 0 -1 0 363.0638)">
			<stop  offset="0" style="stop-color:#B4792D"/>
			<stop  offset="4.812843e-02" style="stop-color:#9A6929;stop-opacity:0.9952"/>
			<stop  offset="0.1267" style="stop-color:#775324;stop-opacity:0.9873"/>
			<stop  offset="0.213" style="stop-color:#594020;stop-opacity:0.9787"/>
			<stop  offset="0.3073" style="stop-color:#40311C;stop-opacity:0.9693"/>
			<stop  offset="0.413" style="stop-color:#2D2519;stop-opacity:0.9587"/>
			<stop  offset="0.5363" style="stop-color:#201C17;stop-opacity:0.9464"/>
			<stop  offset="0.6934" style="stop-color:#181716;stop-opacity:0.9307"/>
			<stop  offset="1" style="stop-color:#161616;stop-opacity:0.9"/>
		</linearGradient>
		<path class="st1" d="M558.4,115.6h61.9c0.3,0,0.6,0.3,1,1l2.8,9.3c0,0.3-3.1,11.6-3.7,12L560.7,148c-0.3,0-2.9-10.4-3.2-11.1
			v-20.4C557.4,116.2,557.7,115.9,558.4,115.6z M558.6,161.1h61.9c0.3,0,0.6,0.3,1,1l2.8,9.3c0,0.3-3.1,11.6-3.7,12l-59.7,10.1
			c-0.3,0-2.9-10.4-3.2-11.1V162C557.6,161.7,557.9,161.4,558.6,161.1z M558.6,207.3h61.9c0.3,0,0.6,0.3,1,1l2.8,9.3
			c0,0.3-3.1,11.6-3.7,12l-59.7,10.1c-0.3,0-2.9-10.4-3.2-11.1v-20.4C557.6,208,557.9,207.6,558.6,207.3z"/>
		
			<linearGradient id="SVGID_3_" gradientUnits="userSpaceOnUse" x1="989.8616" y1="82.5205" x2="989.8616" y2="297.1225" gradientTransform="matrix(1 0 0 -1 0 363.0638)">
			<stop  offset="0" style="stop-color:#B4792D"/>
			<stop  offset="4.812843e-02" style="stop-color:#9A6929;stop-opacity:0.9952"/>
			<stop  offset="0.1267" style="stop-color:#775324;stop-opacity:0.9873"/>
			<stop  offset="0.213" style="stop-color:#594020;stop-opacity:0.9787"/>
			<stop  offset="0.3073" style="stop-color:#40311C;stop-opacity:0.9693"/>
			<stop  offset="0.413" style="stop-color:#2D2519;stop-opacity:0.9587"/>
			<stop  offset="0.5363" style="stop-color:#201C17;stop-opacity:0.9464"/>
			<stop  offset="0.6934" style="stop-color:#181716;stop-opacity:0.9307"/>
			<stop  offset="1" style="stop-color:#161616;stop-opacity:0.9"/>
		</linearGradient>
		<path class="st2" d="M996.3,114.9c20.5,6.8,30.7,20.5,30.7,41.1c0,5.9-1.5,12.4-4.5,19.6c-4.8,8-11.6,13.4-20.3,16.3v1.1
			c19.1,31.8,28.6,48.1,28.6,48.9l3.4,10.7c-1-0.3-35.5-15.3-40.1-23.6c-12.6-22-23.2-37.6-28.3-46.8c0,0,1.1-8.6,1-9.1l1-1h11.7
			c14.7,0,22-5.5,22-16.4v-1c0-2.9-0.7-5.6-2.2-8.1c-3.5-5.8-10.1-8.7-19.8-8.7L948.7,148c-0.7-0.4-3.1-10.8-3.1-11.1v-22.7
			c0.4-0.7,0.7-1.1,1.1-1.1h34.8C985.7,113.1,990.6,113.7,996.3,114.9z"/>
		
			<linearGradient id="SVGID_4_" gradientUnits="userSpaceOnUse" x1="162.0117" y1="83.7276" x2="162.0117" y2="296.7824" gradientTransform="matrix(1 0 0 -1 0 363.0638)">
			<stop  offset="0" style="stop-color:#B4792D"/>
			<stop  offset="4.812843e-02" style="stop-color:#9A6929;stop-opacity:0.9952"/>
			<stop  offset="0.1267" style="stop-color:#775324;stop-opacity:0.9873"/>
			<stop  offset="0.213" style="stop-color:#594020;stop-opacity:0.9787"/>
			<stop  offset="0.3073" style="stop-color:#40311C;stop-opacity:0.9693"/>
			<stop  offset="0.413" style="stop-color:#2D2519;stop-opacity:0.9587"/>
			<stop  offset="0.5363" style="stop-color:#201C17;stop-opacity:0.9464"/>
			<stop  offset="0.6934" style="stop-color:#181716;stop-opacity:0.9307"/>
			<stop  offset="1" style="stop-color:#161616;stop-opacity:0.9"/>
		</linearGradient>
		<path class="st3" d="M166.1,114.9c20.5,6.8,30.7,20.5,30.7,41.1c0,5.9-1.5,12.4-4.5,19.6c-4.8,8-11.6,13.4-20.3,16.3l5.4,3.3
			c19.1,31.8,31.2,55.5,31.2,56.3l-26.8-0.3c-1-0.3-13.1-14-17.7-22.3c-21-36.5-31.6-55.4-31.8-56.5V172h17.1c14.7,0,22-5.5,22-16.4
			v-1c0-2.9-0.7-5.6-2.2-8.1c-3.5-5.8-10.1-8.7-19.8-8.7h-32.8c-0.7-0.4-1.1-0.7-1.1-1v-22.7c0.4-0.7,0.7-1.1,1.1-1.1h34.8
			C155.5,113.1,160.4,113.7,166.1,114.9z"/>
		
			<linearGradient id="SVGID_5_" gradientUnits="userSpaceOnUse" x1="1099.6117" y1="83.8" x2="1099.6117" y2="293.5579" gradientTransform="matrix(1 0 0 -1 0 363.0638)">
			<stop  offset="0" style="stop-color:#B4792D"/>
			<stop  offset="4.812843e-02" style="stop-color:#9A6929;stop-opacity:0.9952"/>
			<stop  offset="0.1267" style="stop-color:#775324;stop-opacity:0.9873"/>
			<stop  offset="0.213" style="stop-color:#594020;stop-opacity:0.9787"/>
			<stop  offset="0.3073" style="stop-color:#40311C;stop-opacity:0.9693"/>
			<stop  offset="0.413" style="stop-color:#2D2519;stop-opacity:0.9587"/>
			<stop  offset="0.5363" style="stop-color:#201C17;stop-opacity:0.9464"/>
			<stop  offset="0.6934" style="stop-color:#181716;stop-opacity:0.9307"/>
			<stop  offset="1" style="stop-color:#161616;stop-opacity:0.9"/>
		</linearGradient>
		<path class="st4" d="M1101.7,116.9l-1,26.9c-0.4,0.7-1.7,1.2-2,1.2l-3-2c-3.4,0-1.7-3.9-4.3-3.5c-10.5,2.3-15.8,7.1-15.8,14.4v1.8
			c0,7.9,11.1,12.7,33.3,14.6c30.1,4,45.2,17.4,45.2,40.1c0,5-1,10.1-2.9,15.4c-8.6,17.4-25.4,26.1-50.5,26.1
			c-12.6,0-23.6-2.2-33.3-6.5c-11.2-6.2-18.6-14.5-22.2-25c1.6-1.3,8.5-5,20.4-11.1c0.7,0,1,0.2,1,0.7c6.3,12.2,16.6,18.3,30.8,18.3
			h5.7c2,0,4.2-0.1,6.5-0.3c12.4-2.9,18.6-7.8,18.6-14.7v-5c0-5.3-5.1-9.7-15.4-13.2c-15.7-2.2-27.4-4.3-35.1-6.5
			c-18.4-6-27.6-17.5-27.6-34.3c0-5.4,1.2-10.6,3.5-15.8c9.3-15,24.8-22.5,46.6-22.5C1101.3,116,1101.7,116.3,1101.7,116.9z"/>
		<g>
			
				<linearGradient id="SVGID_6_" gradientUnits="userSpaceOnUse" x1="36.1117" y1="100.9669" x2="36.1117" y2="288.0315" gradientTransform="matrix(1 0 0 -1 0 363.0638)">
				<stop  offset="0" style="stop-color:#B4792D"/>
				<stop  offset="4.812843e-02" style="stop-color:#9A6929;stop-opacity:0.9952"/>
				<stop  offset="0.1267" style="stop-color:#775324;stop-opacity:0.9873"/>
				<stop  offset="0.213" style="stop-color:#594020;stop-opacity:0.9787"/>
				<stop  offset="0.3073" style="stop-color:#40311C;stop-opacity:0.9693"/>
				<stop  offset="0.413" style="stop-color:#2D2519;stop-opacity:0.9587"/>
				<stop  offset="0.5363" style="stop-color:#201C17;stop-opacity:0.9464"/>
				<stop  offset="0.6934" style="stop-color:#181716;stop-opacity:0.9307"/>
				<stop  offset="1" style="stop-color:#161616;stop-opacity:0.9"/>
			</linearGradient>
			<rect x="24.9" y="167.5" class="st5" width="22.5" height="68"/>
			
				<linearGradient id="SVGID_7_" gradientUnits="userSpaceOnUse" x1="62.7117" y1="95.371" x2="62.7117" y2="293.5021" gradientTransform="matrix(1 0 0 -1 0 363.0638)">
				<stop  offset="0" style="stop-color:#B4792D"/>
				<stop  offset="4.812843e-02" style="stop-color:#9A6929;stop-opacity:0.9952"/>
				<stop  offset="0.1267" style="stop-color:#775324;stop-opacity:0.9873"/>
				<stop  offset="0.213" style="stop-color:#594020;stop-opacity:0.9787"/>
				<stop  offset="0.3073" style="stop-color:#40311C;stop-opacity:0.9693"/>
				<stop  offset="0.413" style="stop-color:#2D2519;stop-opacity:0.9587"/>
				<stop  offset="0.5363" style="stop-color:#201C17;stop-opacity:0.9464"/>
				<stop  offset="0.6934" style="stop-color:#181716;stop-opacity:0.9307"/>
				<stop  offset="1" style="stop-color:#161616;stop-opacity:0.9"/>
			</linearGradient>
			<path class="st6" d="M101.1,134.4c-1.9-5-5.1-9.4-9.4-13.2c-2.7-2.5-5.5-4.4-8.4-5.8s-5.8-2.4-8.7-3.1c-3-0.7-6-1.1-9.2-1.3
				c-3.1-0.2-6.5-0.3-10-0.3H21.5v22.5h23.8v-0.3H54c3.1,0,6.2,0.2,9.2,0.5c0.7,0.1,1.4,0.2,2,0.3h0.1l0,0c2.3,0.4,4.4,1.1,6.3,2.1
				c2.5,1.3,4.5,3.1,6.1,5.4c1.5,2.3,2.3,5.4,2.3,9.3c0,4-0.8,7.1-2.5,9.4c-1.7,2.3-3.8,4-6.4,5.2s-5.5,2-8.7,2.3s-6.3,0.5-9.4,0.5
				h-0.5v22.4h2.9c3.5,0,6.9-0.1,10-0.3s6.2-0.6,9.2-1.3s5.9-1.7,8.7-3.1c2.8-1.4,5.6-3.3,8.4-5.6c4.3-3.9,7.5-8.3,9.4-13.3
				s2.9-10.4,2.9-16.3C104,144.9,103.1,139.5,101.1,134.4z"/>
		</g>
		
			<linearGradient id="SVGID_8_" gradientUnits="userSpaceOnUse" x1="275.8616" y1="95.371" x2="275.8616" y2="293.5021" gradientTransform="matrix(1 0 0 -1 0 363.0638)">
			<stop  offset="0" style="stop-color:#B4792D"/>
			<stop  offset="4.812843e-02" style="stop-color:#9A6929;stop-opacity:0.9952"/>
			<stop  offset="0.1267" style="stop-color:#775324;stop-opacity:0.9873"/>
			<stop  offset="0.213" style="stop-color:#594020;stop-opacity:0.9787"/>
			<stop  offset="0.3073" style="stop-color:#40311C;stop-opacity:0.9693"/>
			<stop  offset="0.413" style="stop-color:#2D2519;stop-opacity:0.9587"/>
			<stop  offset="0.5363" style="stop-color:#201C17;stop-opacity:0.9464"/>
			<stop  offset="0.6934" style="stop-color:#181716;stop-opacity:0.9307"/>
			<stop  offset="1" style="stop-color:#161616;stop-opacity:0.9"/>
		</linearGradient>
		<path class="st7" d="M275.9,239.1c-8.4,0-16.4-1.6-23.9-4.8c-7.5-3.2-14.1-7.5-19.7-13c-5.6-5.5-10.1-12-13.4-19.4
			c-3.3-7.4-4.9-15.4-4.9-23.9c0-8.6,1.6-16.7,4.8-24.2s7.7-14,13.3-19.6s12.2-10,19.7-13.2c7.5-3.2,15.5-4.8,24-4.8
			s16.6,1.6,24.1,4.8c7.5,3.2,14.1,7.6,19.7,13.2c5.6,5.6,10,12.1,13.3,19.6s4.9,15.6,4.9,24.2c0,8.5-1.6,16.5-4.9,23.9
			c-3.3,7.4-7.7,13.9-13.4,19.4c-5.6,5.5-12.2,9.9-19.7,13C292.4,237.6,284.4,239.1,275.9,239.1z M275.9,136.8
			c-5.6,0-10.8,1.1-15.7,3.3c-4.9,2.2-9.1,5.1-12.7,8.9c-3.6,3.7-6.4,8.1-8.4,13c-2,5-3,10.3-3,15.8s1,10.7,3.1,15.6
			c2.1,4.9,4.9,9.2,8.4,13c3.6,3.7,7.8,6.7,12.6,8.9c4.9,2.2,10.1,3.3,15.7,3.3c5.6,0,10.8-1.1,15.7-3.3s9.1-5.1,12.6-8.9
			c3.6-3.7,6.4-8,8.4-13c2.1-4.9,3.1-10.1,3.1-15.6c0-5.6-1-10.8-3-15.8s-4.8-9.3-8.4-13c-3.6-3.7-7.8-6.7-12.6-8.9
			C286.8,137.9,281.5,136.8,275.9,136.8z"/>
		
			<linearGradient id="SVGID_9_" gradientUnits="userSpaceOnUse" x1="498.0617" y1="82.5451" x2="498.0617" y2="297.4114" gradientTransform="matrix(1 0 0 -1 0 363.0638)">
			<stop  offset="0" style="stop-color:#B4792D"/>
			<stop  offset="4.812843e-02" style="stop-color:#9A6929;stop-opacity:0.9952"/>
			<stop  offset="0.1267" style="stop-color:#775324;stop-opacity:0.9873"/>
			<stop  offset="0.213" style="stop-color:#594020;stop-opacity:0.9787"/>
			<stop  offset="0.3073" style="stop-color:#40311C;stop-opacity:0.9693"/>
			<stop  offset="0.413" style="stop-color:#2D2519;stop-opacity:0.9587"/>
			<stop  offset="0.5363" style="stop-color:#201C17;stop-opacity:0.9464"/>
			<stop  offset="0.6934" style="stop-color:#181716;stop-opacity:0.9307"/>
			<stop  offset="1" style="stop-color:#161616;stop-opacity:0.9"/>
		</linearGradient>
		<path class="st8" d="M525.8,125.8c4.2,3.6,7.2,7.8,9,12.6c1.9,4.8,2.8,10,2.8,15.6c0,5.6-0.9,10.8-2.8,15.6
			c-1.9,4.8-4.9,9.1-9,12.8c-2.6,2.3-5.3,4.1-8,5.4c-2.7,1.3-5.5,2.3-8.4,3c-2.8,0.7-5.8,1.1-8.8,1.2c-3,0.2-1,7.3-4.4,7.3l-5,2
			l-3-30.5h0.5c3,0,6-0.2,9-0.5c3.1-0.3,5.8-1.1,8.4-2.2c2.5-1.1,4.6-2.8,6.2-5c1.6-2.2,2.4-5.2,2.4-9c0-3.7-0.7-6.7-2.2-8.9
			c-1.5-2.2-3.4-4-5.8-5.2c-2.4-1.2-5.1-2-8-2.3c-3-0.3-5.9-0.5-8.9-0.5h-8.4l-19.3,112.4l-3.5-10.4V115.8h32.5
			c3.4,0,6.6,0.1,9.6,0.2c3,0.2,5.9,0.6,8.8,1.2c2.8,0.7,5.6,1.6,8.4,3C520.5,121.6,523.2,123.4,525.8,125.8z"/>
		
			<linearGradient id="SVGID_10_" gradientUnits="userSpaceOnUse" x1="684.5117" y1="95.371" x2="684.5117" y2="293.5021" gradientTransform="matrix(1 0 0 -1 0 363.0638)">
			<stop  offset="0" style="stop-color:#B4792D"/>
			<stop  offset="4.812843e-02" style="stop-color:#9A6929;stop-opacity:0.9952"/>
			<stop  offset="0.1267" style="stop-color:#775324;stop-opacity:0.9873"/>
			<stop  offset="0.213" style="stop-color:#594020;stop-opacity:0.9787"/>
			<stop  offset="0.3073" style="stop-color:#40311C;stop-opacity:0.9693"/>
			<stop  offset="0.413" style="stop-color:#2D2519;stop-opacity:0.9587"/>
			<stop  offset="0.5363" style="stop-color:#201C17;stop-opacity:0.9464"/>
			<stop  offset="0.6934" style="stop-color:#181716;stop-opacity:0.9307"/>
			<stop  offset="1" style="stop-color:#161616;stop-opacity:0.9"/>
		</linearGradient>
		<path class="st9" d="M687.2,139.5c-4.8,2-9,4.9-12.5,8.5c-3.5,3.7-6.2,8-8.2,13.1s-3,10.6-3,16.6c0,6.2,1,11.9,3,16.9
			s4.8,9.3,8.4,12.9c3.6,3.6,7.7,6.3,12.4,8.2s9.7,2.9,15.1,2.9h20.7h1.1l3.3,10.8l-24.7,9.7h-0.5c-7.9-0.1-15.5-1.5-22.8-4.3
			c-7.3-2.7-13.8-6.7-19.4-11.9c-5.6-5.2-10.1-11.6-13.4-19.2c-3.4-7.6-5.1-16.4-5.1-26.5c0-9.5,1.7-18.1,5-25.7
			c3.3-7.6,7.8-14,13.5-19.3c5.7-5.2,12.2-9.3,19.5-12.1c7.3-2.8,15-4.2,23.1-4.2h0.2h21.2l3.3,11.7l-4.5,8.6h-20
			C697.3,136.5,692,137.5,687.2,139.5z"/>
		
			<linearGradient id="SVGID_11_" gradientUnits="userSpaceOnUse" x1="777.2116" y1="82.5355" x2="777.2116" y2="297.4688" gradientTransform="matrix(1 0 0 -1 0 363.0638)">
			<stop  offset="0" style="stop-color:#B4792D"/>
			<stop  offset="4.812843e-02" style="stop-color:#9A6929;stop-opacity:0.9952"/>
			<stop  offset="0.1267" style="stop-color:#775324;stop-opacity:0.9873"/>
			<stop  offset="0.213" style="stop-color:#594020;stop-opacity:0.9787"/>
			<stop  offset="0.3073" style="stop-color:#40311C;stop-opacity:0.9693"/>
			<stop  offset="0.413" style="stop-color:#2D2519;stop-opacity:0.9587"/>
			<stop  offset="0.5363" style="stop-color:#201C17;stop-opacity:0.9464"/>
			<stop  offset="0.6934" style="stop-color:#181716;stop-opacity:0.9307"/>
			<stop  offset="1" style="stop-color:#161616;stop-opacity:0.9"/>
		</linearGradient>
		<path class="st10" d="M766.8,249.6l-2.8-10.4V137.6l-20.3,9.3l-2-5l-0.4-25.6h68.6l3.3,10.6l-26.4,10.8L766.8,249.6z"/>
		
			<linearGradient id="SVGID_12_" gradientUnits="userSpaceOnUse" x1="878.5616" y1="95.371" x2="878.5616" y2="293.5021" gradientTransform="matrix(1 0 0 -1 0 363.0638)">
			<stop  offset="0" style="stop-color:#B4792D"/>
			<stop  offset="4.812843e-02" style="stop-color:#9A6929;stop-opacity:0.9952"/>
			<stop  offset="0.1267" style="stop-color:#775324;stop-opacity:0.9873"/>
			<stop  offset="0.213" style="stop-color:#594020;stop-opacity:0.9787"/>
			<stop  offset="0.3073" style="stop-color:#40311C;stop-opacity:0.9693"/>
			<stop  offset="0.413" style="stop-color:#2D2519;stop-opacity:0.9587"/>
			<stop  offset="0.5363" style="stop-color:#201C17;stop-opacity:0.9464"/>
			<stop  offset="0.6934" style="stop-color:#181716;stop-opacity:0.9307"/>
			<stop  offset="1" style="stop-color:#161616;stop-opacity:0.9"/>
		</linearGradient>
		<path class="st11" d="M878.6,239.1c-8.4,0-16.4-1.6-23.9-4.8s-14.1-7.5-19.7-13s-10.1-12-13.4-19.4s-4.9-15.4-4.9-23.9
			c0-8.6,1.6-16.7,4.8-24.2c3.2-7.5,7.7-14,13.3-19.6c5.6-5.6,12.2-10,19.7-13.2s15.5-4.8,24-4.8s16.6,1.6,24.1,4.8
			c7.5,3.2,14.1,7.6,19.7,13.2s10,12.1,13.3,19.6s4.9,15.6,4.9,24.2c0,8.5-1.6,16.5-4.9,23.9s-7.7,13.9-13.4,19.4
			c-5.6,5.5-12.2,9.9-19.7,13C895.2,237.6,887.2,239.1,878.6,239.1z M878.6,136.8c-5.6,0-10.8,1.1-15.7,3.3
			c-4.9,2.2-9.1,5.1-12.7,8.9c-3.6,3.7-6.4,8.1-8.4,13c-2,5-3,10.3-3,15.8s1,10.7,3.1,15.6c2.1,4.9,4.9,9.2,8.4,13
			c3.6,3.7,7.8,6.7,12.6,8.9c4.9,2.2,10.1,3.3,15.7,3.3s10.8-1.1,15.7-3.3c4.9-2.2,9.1-5.1,12.6-8.9c3.6-3.7,6.4-8,8.4-13
			c2.1-4.9,3.1-10.1,3.1-15.6c0-5.6-1-10.8-3-15.8s-4.8-9.3-8.4-13s-7.8-6.7-12.6-8.9C889.6,137.9,884.3,136.8,878.6,136.8z"/>
		<g>
			
				<linearGradient id="SVGID_13_" gradientUnits="userSpaceOnUse" x1="-28.0189" y1="178.5554" x2="1406.5354" y2="186.027" gradientTransform="matrix(1 0 0 -1 0 363.0638)">
				<stop  offset="2.882894e-02" style="stop-color:#804D12"/>
				<stop  offset="0.1581" style="stop-color:#A07936"/>
				<stop  offset="0.449" style="stop-color:#F2E691"/>
				<stop  offset="0.4781" style="stop-color:#FAF19A"/>
				<stop  offset="0.6909" style="stop-color:#B4792D"/>
				<stop  offset="1" style="stop-color:#F7E482"/>
			</linearGradient>
			<path class="st12" d="M400.6,126.4v17.4c-0.3,0.6-0.6,0.9-0.9,0.9h-0.3c-2.8,0-5.3,0.2-7.4,0.6c-8.8,2-13.2,5.9-13.2,12v1.5
				c0,6.6,9.2,10.6,27.7,12.2c25.1,3.3,37.6,14.5,37.6,33.4c0,4.2-0.8,8.5-2.4,12.8c-7.1,14.5-21.2,21.8-42.1,21.8
				c-10.5,0-19.7-1.8-27.7-5.4c-9.3-5.2-15.5-12.1-18.5-20.8c1.4-1.1,7.1-4.1,17-9.3c0.6,0,0.9,0.2,0.9,0.6
				c5.3,10.1,13.8,15.2,25.7,15.2h4.8c1.7,0,3.5-0.1,5.4-0.2c10.4-2.4,15.5-6.5,15.5-12.3v-4.3c0-4.4-4.3-8.1-12.8-11
				c-13.1-1.8-22.8-3.6-29.2-5.4c-15.3-5-23-14.6-23-28.6c0-4.5,1-8.9,2.9-13.2c7.8-12.5,20.7-18.8,38.8-18.8
				C400.2,125.6,400.6,125.9,400.6,126.4z"/>
			
				<linearGradient id="SVGID_14_" gradientUnits="userSpaceOnUse" x1="-5.8861" y1="177.3163" x2="1428.6678" y2="184.7879" gradientTransform="matrix(1 0 0 -1 0 363.0638)">
				<stop  offset="2.882894e-02" style="stop-color:#804D12"/>
				<stop  offset="0.1581" style="stop-color:#A07936"/>
				<stop  offset="0.449" style="stop-color:#F2E691"/>
				<stop  offset="0.4781" style="stop-color:#FAF19A"/>
				<stop  offset="0.6909" style="stop-color:#B4792D"/>
				<stop  offset="1" style="stop-color:#F7E482"/>
			</linearGradient>
			<path class="st13" d="M561.4,125.7h61.9c0.3,0,0.6,0.3,1,1v20.4c0,0.3-0.3,0.6-1,1h-61.9c-0.3,0-0.6-0.3-1-1v-20.4
				C560.4,126.3,560.7,126,561.4,125.7z M561.4,171.3h61.9c0.3,0,0.6,0.3,1,1v20.4c0,0.3-0.3,0.6-1,1h-61.9c-0.3,0-0.6-0.3-1-1
				v-20.4C560.4,172,560.7,171.6,561.4,171.3z M561.4,217.3h61.9c0.3,0,0.6,0.3,1,0.9v20.3c0,0.3-0.3,0.6-1,1h-61.9
				c-0.3,0-0.6-0.3-1-1v-20.4C560.4,217.9,560.7,217.6,561.4,217.3z"/>
			
				<linearGradient id="SVGID_15_" gradientUnits="userSpaceOnUse" x1="27.3388" y1="170.5088" x2="1461.8928" y2="177.9803" gradientTransform="matrix(1 0 0 -1 0 363.0638)">
				<stop  offset="2.882894e-02" style="stop-color:#804D12"/>
				<stop  offset="0.1581" style="stop-color:#A07936"/>
				<stop  offset="0.449" style="stop-color:#F2E691"/>
				<stop  offset="0.4781" style="stop-color:#FAF19A"/>
				<stop  offset="0.6909" style="stop-color:#B4792D"/>
				<stop  offset="1" style="stop-color:#F7E482"/>
			</linearGradient>
			<path class="st14" d="M999.4,124.9c20.5,6.8,30.7,20.5,30.7,41.1c0,5.9-1.5,12.4-4.5,19.6c-4.8,8-11.6,13.4-20.3,16.3v1.1
				c19.1,31.8,28.6,48.1,28.6,48.9h-28.3c-1-0.3-3.7-4.6-8.4-12.9c-21-36.5-31.6-55.4-31.8-56.5v-0.4h17.2c14.7,0,22-5.5,22-16.4v-1
				c0-2.9-0.7-5.6-2.2-8.1c-3.5-5.8-10.1-8.7-19.8-8.7h-32.8c-0.7-0.4-1.1-0.7-1.1-1v-22.7c0.4-0.7,0.7-1.1,1.1-1.1h34.8
				C988.7,123.1,993.6,123.7,999.4,124.9z"/>
			
				<linearGradient id="SVGID_16_" gradientUnits="userSpaceOnUse" x1="-50.1237" y1="174.4295" x2="1384.4304" y2="181.901" gradientTransform="matrix(1 0 0 -1 0 363.0638)">
				<stop  offset="2.882894e-02" style="stop-color:#804D12"/>
				<stop  offset="0.1581" style="stop-color:#A07936"/>
				<stop  offset="0.449" style="stop-color:#F2E691"/>
				<stop  offset="0.4781" style="stop-color:#FAF19A"/>
				<stop  offset="0.6909" style="stop-color:#B4792D"/>
				<stop  offset="1" style="stop-color:#F7E482"/>
			</linearGradient>
			<path class="st15" d="M169.1,124.9c20.5,6.8,30.7,20.5,30.7,41.1c0,5.9-1.5,12.4-4.5,19.6c-4.8,8-11.6,13.4-20.3,16.3v1.1
				c19.1,31.8,28.6,48.1,28.6,48.9h-28.2c-1-0.3-3.7-4.6-8.4-12.9c-21-36.5-31.6-55.4-31.8-56.5v-0.4h17.2c14.7,0,22-5.5,22-16.4v-1
				c0-2.9-0.7-5.6-2.2-8.1c-3.5-5.8-10.1-8.7-19.8-8.7h-32.8c-0.7-0.4-1.1-0.7-1.1-1v-22.7c0.4-0.7,0.7-1.1,1.1-1.1h34.8
				C158.5,123.1,163.4,123.7,169.1,124.9z"/>
			
				<linearGradient id="SVGID_17_" gradientUnits="userSpaceOnUse" x1="38.4051" y1="169.9106" x2="1472.9591" y2="177.3823" gradientTransform="matrix(1 0 0 -1 0 363.0638)">
				<stop  offset="2.882894e-02" style="stop-color:#804D12"/>
				<stop  offset="0.1581" style="stop-color:#A07936"/>
				<stop  offset="0.449" style="stop-color:#F2E691"/>
				<stop  offset="0.4781" style="stop-color:#FAF19A"/>
				<stop  offset="0.6909" style="stop-color:#B4792D"/>
				<stop  offset="1" style="stop-color:#F7E482"/>
			</linearGradient>
			<path class="st16" d="M1099.6,124.4v19.7c-0.4,0.7-0.7,1-1,1h-0.4c-3.2,0-6,0.2-8.4,0.6c-9.9,2.2-14.9,6.7-14.9,13.6v1.7
				c0,7.4,10.5,12,31.4,13.8c28.4,3.8,42.7,16.4,42.7,37.9c0,4.7-0.9,9.6-2.7,14.5c-8.1,16.5-24,24.7-47.7,24.7
				c-11.9,0-22.3-2-31.4-6.1c-10.5-5.9-17.5-13.7-21-23.6c1.6-1.2,8-4.7,19.3-10.5c0.7,0,1,0.2,1,0.6c6,11.5,15.7,17.2,29.1,17.2
				h5.4c1.9,0,4-0.1,6.1-0.3c11.7-2.8,17.6-7.4,17.6-13.9v-4.8c0-5-4.8-9.2-14.5-12.5c-14.8-2-25.9-4.1-33.1-6.1
				c-17.4-5.7-26-16.5-26-32.4c0-5.1,1.1-10.1,3.3-14.9c8.8-14.2,23.5-21.3,44-21.3C1099.1,123.5,1099.6,123.9,1099.6,124.4z"/>
			<g>
				
					<linearGradient id="SVGID_18_" gradientUnits="userSpaceOnUse" x1="-69.1767" y1="148.9817" x2="1427.4998" y2="156.7768" gradientTransform="matrix(1 0 0 -1 0 363.0638)">
					<stop  offset="2.882894e-02" style="stop-color:#804D12"/>
					<stop  offset="0.1581" style="stop-color:#A07936"/>
					<stop  offset="0.449" style="stop-color:#F2E691"/>
					<stop  offset="0.4781" style="stop-color:#FAF19A"/>
					<stop  offset="0.6909" style="stop-color:#B4792D"/>
					<stop  offset="1" style="stop-color:#F7E482"/>
				</linearGradient>
				<rect x="24.6" y="177.5" class="st17" width="23.8" height="72"/>
				
					<linearGradient id="SVGID_19_" gradientUnits="userSpaceOnUse" x1="-69.4521" y1="201.853" x2="1427.2244" y2="209.6482" gradientTransform="matrix(1 0 0 -1 0 363.0638)">
					<stop  offset="2.882894e-02" style="stop-color:#804D12"/>
					<stop  offset="0.1581" style="stop-color:#A07936"/>
					<stop  offset="0.449" style="stop-color:#F2E691"/>
					<stop  offset="0.4781" style="stop-color:#FAF19A"/>
					<stop  offset="0.6909" style="stop-color:#B4792D"/>
					<stop  offset="1" style="stop-color:#F7E482"/>
				</linearGradient>
				<path class="st18" d="M104.1,144.5c-1.9-5-5.1-9.4-9.4-13.2c-2.7-2.5-5.5-4.4-8.4-5.8s-5.8-2.4-8.7-3.1c-3-0.7-6-1.1-9.2-1.3
					c-3.1-0.2-6.5-0.3-10-0.3H24.5v22.5h23.9V143h8.7c3.1,0,6.2,0.2,9.2,0.5c0.7,0.1,1.4,0.2,2,0.3h0.1l0,0c2.3,0.4,4.4,1.1,6.3,2.1
					c2.5,1.3,4.5,3.1,6.1,5.4c1.5,2.3,2.3,5.4,2.3,9.3c0,4-0.8,7.1-2.5,9.4c-1.7,2.3-3.8,4-6.4,5.2s-5.5,2-8.7,2.3s-6.3,0.5-9.4,0.5
					h-0.5v22.4h2.9c3.5,0,6.9-0.1,10-0.3s6.2-0.6,9.2-1.3s5.9-1.7,8.7-3.1c2.8-1.4,5.6-3.3,8.4-5.6c4.3-3.9,7.5-8.3,9.4-13.3
					s2.9-10.4,2.9-16.3C107,154.9,106.1,149.5,104.1,144.5z"/>
			</g>
			
				<linearGradient id="SVGID_20_" gradientUnits="userSpaceOnUse" x1="-39.0563" y1="173.6264" x2="1395.4977" y2="181.0979" gradientTransform="matrix(1 0 0 -1 0 363.0638)">
				<stop  offset="2.882894e-02" style="stop-color:#804D12"/>
				<stop  offset="0.1581" style="stop-color:#A07936"/>
				<stop  offset="0.449" style="stop-color:#F2E691"/>
				<stop  offset="0.4781" style="stop-color:#FAF19A"/>
				<stop  offset="0.6909" style="stop-color:#B4792D"/>
				<stop  offset="1" style="stop-color:#F7E482"/>
			</linearGradient>
			<path class="st19" d="M278.9,249.2c-8.4,0-16.4-1.6-23.9-4.8c-7.5-3.2-14.1-7.5-19.7-13c-5.6-5.5-10.1-12-13.4-19.4
				c-3.3-7.4-4.9-15.4-4.9-23.9c0-8.6,1.6-16.7,4.8-24.2s7.7-14,13.3-19.6s12.2-10,19.7-13.2c7.5-3.2,15.5-4.8,24-4.8
				s16.6,1.6,24.1,4.8c7.5,3.2,14.1,7.6,19.7,13.2s10,12.1,13.3,19.6s4.9,15.6,4.9,24.2c0,8.5-1.6,16.5-4.9,23.9
				c-3.3,7.4-7.7,13.9-13.4,19.4c-5.6,5.5-12.2,9.9-19.7,13C295.4,247.6,287.4,249.2,278.9,249.2z M278.9,146.9
				c-5.6,0-10.8,1.1-15.7,3.3c-4.9,2.2-9.1,5.1-12.7,8.9c-3.6,3.7-6.4,8.1-8.4,13c-2,5-3,10.3-3,15.8s1,10.7,3.1,15.6
				c2.1,4.9,4.9,9.2,8.4,13c3.6,3.7,7.8,6.7,12.6,8.9c4.9,2.2,10.1,3.3,15.7,3.3s10.8-1.1,15.7-3.3s9.1-5.1,12.6-8.9
				c3.6-3.7,6.4-8,8.4-13c2.1-4.9,3.1-10.1,3.1-15.6c0-5.6-1-10.8-3-15.8s-4.8-9.3-8.4-13c-3.6-3.7-7.8-6.7-12.6-8.9
				C289.8,148,284.6,146.9,278.9,146.9z"/>
			
				<linearGradient id="SVGID_21_" gradientUnits="userSpaceOnUse" x1="-16.9264" y1="172.9305" x2="1417.6276" y2="180.4021" gradientTransform="matrix(1 0 0 -1 0 363.0638)">
				<stop  offset="2.882894e-02" style="stop-color:#804D12"/>
				<stop  offset="0.1581" style="stop-color:#A07936"/>
				<stop  offset="0.449" style="stop-color:#F2E691"/>
				<stop  offset="0.4781" style="stop-color:#FAF19A"/>
				<stop  offset="0.6909" style="stop-color:#B4792D"/>
				<stop  offset="1" style="stop-color:#F7E482"/>
			</linearGradient>
			<path class="st20" d="M528.8,135.9c4.2,3.6,7.2,7.8,9,12.6c1.9,4.8,2.8,10,2.8,15.6s-0.9,10.8-2.8,15.6c-1.9,4.8-4.9,9.1-9,12.8
				c-2.6,2.3-5.3,4.1-8,5.4c-2.7,1.3-5.5,2.3-8.4,3c-2.8,0.7-5.8,1.1-8.8,1.2c-3,0.2-6.2,0.2-9.6,0.2h-2.8v-21.5h0.5
				c3,0,6-0.2,9-0.5c3.1-0.3,5.8-1.1,8.4-2.2c2.5-1.1,4.6-2.8,6.2-5c1.6-2.2,2.4-5.2,2.4-9c0-3.7-0.7-6.7-2.2-8.9s-3.4-4-5.8-5.2
				c-2.4-1.2-5.1-2-8-2.3c-3-0.3-5.9-0.5-8.9-0.5h-8.4v102h-22.8V125.9h32.5c3.4,0,6.6,0.1,9.6,0.2c3,0.2,5.9,0.6,8.8,1.2
				c2.8,0.7,5.6,1.6,8.4,3C523.5,131.6,526.2,133.5,528.8,135.9z"/>
			
				<linearGradient id="SVGID_22_" gradientUnits="userSpaceOnUse" x1="5.2062" y1="171.728" x2="1439.7603" y2="179.1996" gradientTransform="matrix(1 0 0 -1 0 363.0638)">
				<stop  offset="2.882894e-02" style="stop-color:#804D12"/>
				<stop  offset="0.1581" style="stop-color:#A07936"/>
				<stop  offset="0.449" style="stop-color:#F2E691"/>
				<stop  offset="0.4781" style="stop-color:#FAF19A"/>
				<stop  offset="0.6909" style="stop-color:#B4792D"/>
				<stop  offset="1" style="stop-color:#F7E482"/>
			</linearGradient>
			<path class="st21" d="M690.2,149.6c-4.8,2-9,4.9-12.5,8.5c-3.5,3.7-6.2,8-8.2,13.1s-3,10.6-3,16.6c0,6.2,1,11.9,3,16.9
				s4.8,9.3,8.4,12.9c3.6,3.6,7.7,6.3,12.4,8.2s9.7,2.9,15.1,2.9h20.7h1.1v20.5h-21.3h-0.5c-7.9-0.1-15.5-1.5-22.8-4.3
				c-7.3-2.7-13.8-6.7-19.4-11.9c-5.6-5.2-10.1-11.6-13.4-19.2c-3.4-7.6-5.1-16.4-5.1-26.5c0-9.5,1.7-18.1,5-25.7
				c3.3-7.6,7.8-14,13.5-19.3c5.7-5.2,12.2-9.3,19.5-12.1c7.3-2.8,15-4.2,23.1-4.2h0.2h21.2v20.5h-1.1h-20
				C700.3,146.5,695,147.5,690.2,149.6z"/>
			
				<linearGradient id="SVGID_23_" gradientUnits="userSpaceOnUse" x1="16.2714" y1="171.3218" x2="1450.8257" y2="178.7934" gradientTransform="matrix(1 0 0 -1 0 363.0638)">
				<stop  offset="2.882894e-02" style="stop-color:#804D12"/>
				<stop  offset="0.1581" style="stop-color:#A07936"/>
				<stop  offset="0.449" style="stop-color:#F2E691"/>
				<stop  offset="0.4781" style="stop-color:#FAF19A"/>
				<stop  offset="0.6909" style="stop-color:#B4792D"/>
				<stop  offset="1" style="stop-color:#F7E482"/>
			</linearGradient>
			<path class="st22" d="M789.7,249.2h-22.6V147.7h-22.8v-21.3h68.6v21.3h-23.1L789.7,249.2L789.7,249.2z"/>
			
				<linearGradient id="SVGID_24_" gradientUnits="userSpaceOnUse" x1="16.2743" y1="170.7749" x2="1450.8285" y2="178.2466" gradientTransform="matrix(1 0 0 -1 0 363.0638)">
				<stop  offset="2.882894e-02" style="stop-color:#804D12"/>
				<stop  offset="0.1581" style="stop-color:#A07936"/>
				<stop  offset="0.449" style="stop-color:#F2E691"/>
				<stop  offset="0.4781" style="stop-color:#FAF19A"/>
				<stop  offset="0.6909" style="stop-color:#B4792D"/>
				<stop  offset="1" style="stop-color:#F7E482"/>
			</linearGradient>
			<path class="st23" d="M881.7,249.2c-8.4,0-16.4-1.6-23.9-4.8s-14.1-7.5-19.7-13s-10.1-12-13.4-19.4s-4.9-15.4-4.9-23.9
				c0-8.6,1.6-16.7,4.8-24.2c3.2-7.5,7.7-14,13.3-19.6c5.6-5.6,12.2-10,19.7-13.2c7.5-3.2,15.5-4.8,24-4.8s16.6,1.6,24.1,4.8
				c7.5,3.2,14.1,7.6,19.7,13.2s10,12.1,13.3,19.6s4.9,15.6,4.9,24.2c0,8.5-1.6,16.5-4.9,23.9s-7.7,13.9-13.4,19.4
				c-5.6,5.5-12.2,9.9-19.7,13C898.2,247.6,890.2,249.2,881.7,249.2z M881.7,146.9c-5.6,0-10.8,1.1-15.7,3.3
				c-4.9,2.2-9.1,5.1-12.7,8.9c-3.6,3.7-6.4,8.1-8.4,13c-2,5-3,10.3-3,15.8s1,10.7,3.1,15.6c2.1,4.9,4.9,9.2,8.4,13
				c3.6,3.7,7.8,6.7,12.6,8.9c4.9,2.2,10.1,3.3,15.7,3.3s10.8-1.1,15.7-3.3c4.9-2.2,9.1-5.1,12.6-8.9c3.6-3.7,6.4-8,8.4-13
				c2.1-4.9,3.1-10.1,3.1-15.6c0-5.6-1-10.8-3-15.8s-4.8-9.3-8.4-13s-7.8-6.7-12.6-8.9C892.6,148,887.3,146.9,881.7,146.9z"/>
		</g>
	</g>
	<g>
		<g>
			
				<linearGradient id="SVGID_25_" gradientUnits="userSpaceOnUse" x1="1119.4301" y1="323.631" x2="1246.9374" y2="47.032" gradientTransform="matrix(1 0 0 -1 0 363.0638)">
				<stop  offset="8.866570e-03" style="stop-color:#ED7235"/>
				<stop  offset="1.884713e-02" style="stop-color:#E86F34"/>
				<stop  offset="0.128" style="stop-color:#B25628"/>
				<stop  offset="0.2412" style="stop-color:#823F1D"/>
				<stop  offset="0.3564" style="stop-color:#5A2B14"/>
				<stop  offset="0.4737" style="stop-color:#3A1C0D"/>
				<stop  offset="0.5941" style="stop-color:#200F07"/>
				<stop  offset="0.7187" style="stop-color:#0E0703"/>
				<stop  offset="0.8502" style="stop-color:#030201"/>
				<stop  offset="1" style="stop-color:#000000"/>
			</linearGradient>
			<polygon class="st24" points="1239.9,239.2 1208.5,279.7 1207.4,291.6 1240.7,248.7 			"/>
			
				<linearGradient id="SVGID_26_" gradientUnits="userSpaceOnUse" x1="1128.7291" y1="327.9178" x2="1256.2366" y2="51.3187" gradientTransform="matrix(1 0 0 -1 0 363.0638)">
				<stop  offset="8.866570e-03" style="stop-color:#ED7235"/>
				<stop  offset="1.884713e-02" style="stop-color:#E86F34"/>
				<stop  offset="0.128" style="stop-color:#B25628"/>
				<stop  offset="0.2412" style="stop-color:#823F1D"/>
				<stop  offset="0.3564" style="stop-color:#5A2B14"/>
				<stop  offset="0.4737" style="stop-color:#3A1C0D"/>
				<stop  offset="0.5941" style="stop-color:#200F07"/>
				<stop  offset="0.7187" style="stop-color:#0E0703"/>
				<stop  offset="0.8502" style="stop-color:#030201"/>
				<stop  offset="1" style="stop-color:#000000"/>
			</linearGradient>
			<polygon class="st25" points="1209.9,264.7 1238.8,227.3 1238.1,218.7 1210.9,253.8 			"/>
			
				<linearGradient id="SVGID_27_" gradientUnits="userSpaceOnUse" x1="1184.1277" y1="353.4554" x2="1311.6349" y2="76.8565" gradientTransform="matrix(1 0 0 -1 0 363.0638)">
				<stop  offset="8.866570e-03" style="stop-color:#ED7235"/>
				<stop  offset="1.884713e-02" style="stop-color:#E86F34"/>
				<stop  offset="0.128" style="stop-color:#B25628"/>
				<stop  offset="0.2412" style="stop-color:#823F1D"/>
				<stop  offset="0.3564" style="stop-color:#5A2B14"/>
				<stop  offset="0.4737" style="stop-color:#3A1C0D"/>
				<stop  offset="0.5941" style="stop-color:#200F07"/>
				<stop  offset="0.7187" style="stop-color:#0E0703"/>
				<stop  offset="0.8502" style="stop-color:#030201"/>
				<stop  offset="1" style="stop-color:#000000"/>
			</linearGradient>
			<path class="st26" d="M1224.9,24.5c-37.7,0-68.4,30.6-68.4,68.3c0,32.2,22.2,59.1,52.1,66.4l-5.5,8.2l13.3,24.8l-4.2,46.5
				l24.8-31.9l-1.3-14.8l12.6-25l-6.7-7.9c30.3-7,51.6-33.8,51.6-66.3C1293.2,55.1,1262.6,24.5,1224.9,24.5z M1224.9,150
				c-31.6,0-57.2-25.6-57.2-57.2s25.6-57.2,57.2-57.2s57.2,25.6,57.2,57.2S1256.5,150,1224.9,150z"/>
			
				<linearGradient id="SVGID_28_" gradientUnits="userSpaceOnUse" x1="1108.9047" y1="318.7789" x2="1236.412" y2="42.18" gradientTransform="matrix(1 0 0 -1 0 363.0638)">
				<stop  offset="8.866570e-03" style="stop-color:#ED7235"/>
				<stop  offset="1.884713e-02" style="stop-color:#E86F34"/>
				<stop  offset="0.128" style="stop-color:#B25628"/>
				<stop  offset="0.2412" style="stop-color:#823F1D"/>
				<stop  offset="0.3564" style="stop-color:#5A2B14"/>
				<stop  offset="0.4737" style="stop-color:#3A1C0D"/>
				<stop  offset="0.5941" style="stop-color:#200F07"/>
				<stop  offset="0.7187" style="stop-color:#0E0703"/>
				<stop  offset="0.8502" style="stop-color:#030201"/>
				<stop  offset="1" style="stop-color:#000000"/>
			</linearGradient>
			<polygon class="st27" points="1206,306.7 1204.5,323.4 1225.8,338.9 1247.4,323.4 1241.8,260.6 			"/>
		</g>
		<g>
			
				<linearGradient id="SVGID_29_" gradientUnits="userSpaceOnUse" x1="1221.0953" y1="345.414" x2="1221.495" y2="26.8455" gradientTransform="matrix(1 0 0 -1 0 363.0638)">
				<stop  offset="0.2375" style="stop-color:#804D12"/>
				<stop  offset="0.2684" style="stop-color:#8A5A1D"/>
				<stop  offset="0.3259" style="stop-color:#A47D3A"/>
				<stop  offset="0.4029" style="stop-color:#CDB468"/>
				<stop  offset="0.4781" style="stop-color:#FAF19A"/>
				<stop  offset="0.6909" style="stop-color:#B4792D"/>
				<stop  offset="1" style="stop-color:#F7E482"/>
			</linearGradient>
			<polygon class="st28" points="1237.3,238.9 1205.9,279.4 1204.8,291.3 1238.1,248.3 			"/>
			
				<linearGradient id="SVGID_30_" gradientUnits="userSpaceOnUse" x1="1221.4757" y1="345.4145" x2="1221.8752" y2="26.846" gradientTransform="matrix(1 0 0 -1 0 363.0638)">
				<stop  offset="0.2375" style="stop-color:#804D12"/>
				<stop  offset="0.2684" style="stop-color:#8A5A1D"/>
				<stop  offset="0.3259" style="stop-color:#A47D3A"/>
				<stop  offset="0.4029" style="stop-color:#CDB468"/>
				<stop  offset="0.4781" style="stop-color:#FAF19A"/>
				<stop  offset="0.6909" style="stop-color:#B4792D"/>
				<stop  offset="1" style="stop-color:#F7E482"/>
			</linearGradient>
			<polygon class="st29" points="1207.3,264.3 1236.3,227 1235.5,218.4 1208.3,253.4 			"/>
			
				<linearGradient id="SVGID_31_" gradientUnits="userSpaceOnUse" x1="1222.1182" y1="345.4152" x2="1222.5179" y2="26.8467" gradientTransform="matrix(1 0 0 -1 0 363.0638)">
				<stop  offset="0.2375" style="stop-color:#804D12"/>
				<stop  offset="0.2684" style="stop-color:#8A5A1D"/>
				<stop  offset="0.3259" style="stop-color:#A47D3A"/>
				<stop  offset="0.4029" style="stop-color:#CDB468"/>
				<stop  offset="0.4781" style="stop-color:#FAF19A"/>
				<stop  offset="0.6909" style="stop-color:#B4792D"/>
				<stop  offset="1" style="stop-color:#F7E482"/>
			</linearGradient>
			<path class="st30" d="M1222.3,24.1c-37.7,0-68.4,30.6-68.4,68.3c0,32.2,22.2,59.1,52.1,66.4l-5.5,8.2l13.3,24.8l-4.2,46.5
				l24.8-31.9l-1.3-14.8l12.6-25l-6.7-7.9c30.3-7,51.6-33.8,51.6-66.3C1290.7,54.7,1260,24.1,1222.3,24.1z M1222.3,149.7
				c-31.6,0-57.2-25.6-57.2-57.2s25.6-57.2,57.2-57.2s57.2,25.6,57.2,57.2S1253.9,149.7,1222.3,149.7z"/>
			
				<linearGradient id="SVGID_32_" gradientUnits="userSpaceOnUse" x1="1222.9283" y1="345.4163" x2="1223.3281" y2="26.8478" gradientTransform="matrix(1 0 0 -1 0 363.0638)">
				<stop  offset="0.2375" style="stop-color:#804D12"/>
				<stop  offset="0.2684" style="stop-color:#8A5A1D"/>
				<stop  offset="0.3259" style="stop-color:#A47D3A"/>
				<stop  offset="0.4029" style="stop-color:#CDB468"/>
				<stop  offset="0.4781" style="stop-color:#FAF19A"/>
				<stop  offset="0.6909" style="stop-color:#B4792D"/>
				<stop  offset="1" style="stop-color:#F7E482"/>
			</linearGradient>
			<polygon class="st31" points="1203.4,306.4 1201.9,323.1 1223.2,338.5 1244.8,323.1 1239.2,260.3 			"/>
		</g>
		<g>
			
				<linearGradient id="SVGID_33_" gradientUnits="userSpaceOnUse" x1="1240.9066" y1="386.9386" x2="1260.0928" y2="-38.3524" gradientTransform="matrix(1 0 0 -1 0 363.0638)">
				<stop  offset="0" style="stop-color:#FAF19A"/>
				<stop  offset="0.4042" style="stop-color:#B4792D"/>
				<stop  offset="1" style="stop-color:#F7E482"/>
			</linearGradient>
			<path class="st32" d="M1260.8,73.8c-5-14.3-18.6-23.9-33.7-23.9v-1.8c15.9,0,30.2,10.1,35.4,25.1L1260.8,73.8z"/>
		</g>
	</g>
</g>
</svg>
